<svg xmlns="http://www.w3.org/2000/svg" width="300" height="300" viewBox="0 0 300 300"><g fill="none" fill-rule="evenodd"><path fill="#E2F3FE" d="M0 0h300v300H0z"/><path fill="#092A5E" fill-rule="nonzero" d="M124.5 86.1c0-1.733-.233-3.35-.7-4.85-.467-1.5-1.15-2.783-2.05-3.85-.9-1.067-2-1.9-3.3-2.5-1.3-.6-2.75-.9-4.35-.9-1.6 0-3.05.3-4.35.9-1.3.6-2.4 1.45-3.3 2.55-.9 1.1-1.6 2.4-2.1 3.9s-.75 3.083-.75 4.75c0 1.667.233 3.25.7 4.75.467 1.5 1.15 2.8 2.05 3.9a9.84 9.84 0 003.25 2.6c1.267.633 2.733.95 4.4.95 1.667 0 3.15-.317 4.45-.95 1.3-.633 2.4-1.5 3.3-2.6.9-1.1 1.583-2.4 2.05-3.9.467-1.5.7-3.083.7-4.75zm11.5-.6c0 3.4-.55 6.467-1.65 9.2-1.1 2.733-2.633 5.1-4.6 7.1a20.21 20.21 0 01-6.9 4.6c-2.633 1.067-5.517 1.6-8.65 1.6s-6.033-.533-8.7-1.6c-2.667-1.067-4.967-2.6-6.9-4.6-1.933-2-3.45-4.417-4.55-7.25-1.1-2.833-1.65-6.017-1.65-9.55 0-3.8.433-7.367 1.3-10.7.867-3.333 1.983-6.433 3.35-9.3 1.367-2.867 2.85-5.483 4.45-7.85s3.167-4.433 4.7-6.2c1.394-1.606 2.664-2.978 3.81-4.116l.34-.334c1.233-1.2 2.15-2.033 2.75-2.5.467-.467.933-.85 1.4-1.15.467-.3 1-.533 1.6-.7.6-.167 1.3-.3 2.1-.4.8-.1 1.8-.15 3-.15l.63.005c1.209.02 2.099.102 2.67.245.583.146 1.04.33 1.367.552l.133.098c.4.267.6.667.6 1.2 0 .533-.25 1.1-.75 1.7-.5.6-1.283 1.367-2.35 2.3l-3.4 3.15c-1.4 1.3-2.85 2.833-4.35 4.6a68.046 68.046 0 00-4.45 5.9 48.468 48.468 0 00-3.9 6.95c1-.933 2.367-1.717 4.1-2.35 1.733-.633 3.767-.95 6.1-.95 2.533 0 4.917.467 7.15 1.4a16.935 16.935 0 015.85 4.05c1.667 1.767 2.983 3.917 3.95 6.45.967 2.533 1.45 5.4 1.45 8.6zm71.4 18.4c0 .733-.067 1.267-.2 1.6a2.664 2.664 0 01-.6.9c-.333.333-.883.583-1.65.75-.767.167-1.883.25-3.35.25-1.4 0-2.517-.083-3.35-.25-.833-.167-1.383-.383-1.65-.65a3.979 3.979 0 01-.6-1c-.133-.333-.2-.833-.2-1.5V60.5L183.5 82c-.267.4-.517.717-.75.95-.233.233-.567.467-1 .7-.433.233-.967.4-1.6.5-.633.1-1.55.15-2.75.15l-.726-.006c-.923-.016-1.664-.064-2.224-.144-.7-.1-1.3-.317-1.8-.65s-.983-.833-1.45-1.5l-12.1-20.3v42.2c0 .733-.05 1.267-.15 1.6-.1.333-.317.633-.65.9-.333.333-.9.583-1.7.75-.8.167-1.933.25-3.4.25-1.4 0-2.483-.083-3.25-.25-.767-.167-1.317-.383-1.65-.65a3.979 3.979 0 01-.6-1c-.133-.333-.2-.833-.2-1.5V48.2l-1.9-3.2c-.4-.667-.7-1.2-.9-1.6-.2-.4-.3-.867-.3-1.4 0-.6.333-1.133 1-1.6.467-.267 1.167-.467 2.1-.6.933-.133 2.067-.2 3.4-.2 1.933 0 3.433.15 4.5.45 1.067.3 1.867.817 2.4 1.55l19.7 30.7 17.9-30.1c.467-.733.933-1.3 1.4-1.7.4-.267.95-.483 1.65-.65.7-.167 1.717-.25 3.05-.25 1.467 0 2.6.083 3.4.25.8.167 1.367.383 1.7.65.267.267.467.583.6.95.133.367.2.883.2 1.55v60.9z"/><path fill="#D40E14" d="M75.843 177.194h39.79c3.9 0 6.842 1.233 8 6.773 1.285 6.16.756 10.449-6.178 10.94l-12.492.89c9.193 58.1 62.953 77.037 92.223 14.463 4.845-10.356 6.429-12.242 11.737-10.925 7.193 1.785 8.176 5.484 4.751 15.926-25.31 77.138-110.364 84.87-127.053-18.143l-10.148.732c-8.26.594-8.584-6.374-8.584-10.249 0-7.662 2.845-10.407 7.954-10.407m144.672-37.305c8.157 0 14.77 6.612 14.77 14.769 0 8.156-6.613 14.768-14.77 14.768-8.156 0-14.768-6.612-14.768-14.768 0-8.157 6.612-14.77 14.768-14.77"/></g></svg>
